<svg xmlns="http://www.w3.org/2000/svg" width="1800" height="1800" fill="none" viewBox="0 0 1800 1800"><path fill="#fff" d="M900.001 350C1027.25 350 1150.55 394.121 1248.92 474.845C1347.28 555.568 1414.61 667.9 1439.43 792.7C1464.26 917.501 1445.04 1047.05 1385.06 1159.27C1325.07 1271.49 1228.04 1359.44 1110.48 1408.13L1072.21 1315.75C1168.39 1275.91 1247.79 1203.95 1296.87 1112.13C1345.94 1020.31 1361.67 914.318 1341.35 812.209C1321.04 710.1 1265.96 618.192 1185.48 552.146C1105 486.099 1004.11 450 900.001 450C795.891 450 695.002 486.099 614.524 552.146C534.046 618.192 478.958 710.1 458.647 812.209C438.336 914.318 454.059 1020.31 503.136 1112.13C552.213 1203.95 631.608 1275.9 727.793 1315.75L689.525 1408.13C571.966 1359.44 474.927 1271.49 414.944 1159.27C354.961 1047.05 335.745 917.501 360.569 792.7C385.393 667.9 452.723 555.567 551.085 474.844C649.447 394.12 772.755 350 900.001 350Z"/><path fill="#fff" d="M727.655 1315.75V1450H689.655V1315.75H727.655Z"/><path fill="#fff" d="M689.655 1350V1450H350V1350H689.655Z"/><path fill="#fff" d="M1450 1350V1450H1110V1350H1450Z"/><path fill="#fff" d="M1110.35 1315.75V1450H1072.35V1315.75H1110.35Z"/></svg>