<svg width="1000" height="1000" viewBox="0 0 1000 1000" fill="none" xmlns="http://www.w3.org/2000/svg">
  <g id="Frame 1">
    <path id="Ellipse 1 (Stroke)" d="M500 100C592.542 100 682.221 132.106 753.756 190.848C825.292 249.59 874.26 331.338 892.314 422.155C910.367 512.97 896.392 607.239 852.769 688.9C809.145 770.562 738.572 834.565 653.075 870L625.241 802.766C695.193 773.774 752.936 721.412 788.628 654.598C824.321 587.783 835.758 510.651 820.986 436.346C806.215 362.043 766.148 295.164 707.62 247.103C649.091 199.041 575.716 172.77 500 172.77C424.284 172.77 350.909 199.041 292.38 247.103C233.852 295.164 193.785 362.043 179.014 436.346C164.242 510.651 175.679 587.783 211.372 654.598C247.064 721.412 304.807 773.774 374.759 802.766L346.925 870C261.428 834.565 190.855 770.562 147.231 688.9C103.608 607.239 89.633 512.97 107.686 422.155C125.74 331.338 174.708 249.59 246.244 190.848C317.779 132.106 407.458 100 500 100Z" fill="white"/>
    <path id="Vector 2 (Stroke)" d="M375 802V900H303V802H375Z" fill="white"/>
    <path id="Vector 2 (Stroke)_2" d="M697 802V900H625V802H697Z" fill="white"/>
    <path id="Vector 2 (Stroke)_3" d="M900 827V900H631V827H900Z" fill="white"/>
    <path id="Vector 2 (Stroke)_4" d="M369 827V900H100V827H369Z" fill="white"/>
  </g>
</svg>
