<svg width="1500" height="1500" viewBox="0 0 1500 1500" fill="none" xmlns="http://www.w3.org/2000/svg">
  <path d="M750.001 200C877.246 200 1000.55 244.121 1098.92 324.845C1197.28 405.568 1264.61 517.9 1289.43 642.7C1314.26 767.501 1295.04 897.048 1235.06 1009.27C1175.07 1121.49 1078.04 1209.44 960.476 1258.13L922.209 1165.75C1018.39 1125.91 1097.79 1053.95 1146.87 962.129C1195.94 870.312 1211.67 764.318 1191.35 662.209C1171.04 560.1 1115.96 468.192 1035.48 402.146C954.999 336.099 854.111 300 750.001 300C645.891 300 545.002 336.099 464.524 402.146C384.046 468.192 328.958 560.1 308.647 662.209C288.336 764.318 304.059 870.312 353.136 962.129C402.213 1053.95 481.608 1125.9 577.793 1165.75L539.525 1258.13C421.966 1209.44 324.927 1121.49 264.944 1009.27C204.961 897.048 185.745 767.501 210.569 642.7C235.393 517.9 302.723 405.567 401.085 324.844C499.447 244.12 622.755 200 750.001 200Z" fill="white"/>
  <path d="M577.655 1165.75V1300H539.655V1165.75H577.655Z" fill="white"/>
  <path d="M539.655 1200V1300H200V1200H539.655Z" fill="white"/>
  <path d="M1300 1200V1300H960V1200H1300Z" fill="white"/>
  <path d="M960.345 1165.75V1300H922.345V1165.75H960.345Z" fill="white"/>
</svg>
