<svg xmlns="http://www.w3.org/2000/svg" width="1100" height="1100" fill="none" viewBox="0 0 1100 1100"><path fill="#fff" d="M550.001 0C677.246 1.14441e-05 800.555 44.1211 898.917 124.845C997.279 205.568 1064.61 317.9 1089.43 442.7C1114.26 567.501 1095.04 697.048 1035.06 809.269C975.074 921.489 878.036 1009.44 760.476 1058.13L722.209 965.746C818.393 925.905 897.788 853.945 946.865 762.129C995.942 670.312 1011.67 564.318 991.354 462.209C971.043 360.1 915.955 268.192 835.477 202.146C754.999 136.099 654.111 100 550.001 100C445.891 100 345.002 136.099 264.524 202.146C184.046 268.192 128.958 360.1 108.647 462.209C88.3363 564.318 104.059 670.312 153.136 762.129C202.213 853.945 281.608 925.905 377.793 965.746L339.525 1058.13C221.966 1009.44 124.927 921.489 64.944 809.269C4.96096 697.048 -14.2554 567.501 10.569 442.7C35.3934 317.9 102.723 205.567 201.085 124.844C299.447 44.1203 422.755 -4.38963e-06 550.001 0Z"/><path fill="#fff" d="M377.655 965.75V1100H339.655V965.75H377.655Z"/><path fill="#fff" d="M339.655 1000V1100H1.83e-07V1000H339.655Z"/><path fill="#fff" d="M1100 1000V1100H760V1000H1100Z"/><path fill="#fff" d="M760.345 965.75V1100H722.345V965.75H760.345Z"/></svg>